<svg xmlns="http://www.w3.org/2000/svg" width="622" height="719" viewBox="0 0 622 719"><g><g><path fill="#f6f8f9" d="M621.953 447.548V653.21c0 36.147-29.299 65.455-65.44 65.455H136.582a65.405 65.405 0 0 1-53.821-28.234L11.635 587.614c-15.496-22.411-15.496-52.059 0-74.47L82.76 410.327c12.223-17.693 32.339-28.206 53.821-28.206h419.933c36.14 0 65.439 29.28 65.439 65.427zM387.235 313.813H229.342c-36.901 0-58.406-41.652-37.034-71.728L350.202 19.858c25.632-36.1 82.46-17.952 82.46 26.29v222.246c0 25.073-20.338 45.419-45.427 45.419z"/></g></g></svg>