<?xml version="1.0" encoding="utf-8"?>
<!-- Generator: Adobe Illustrator 24.1.1, SVG Export Plug-In . SVG Version: 6.00 Build 0)  -->
<svg version="1.1" id="_x2D_--------------------------------------------------------------_copy_2_1_"
	 xmlns="http://www.w3.org/2000/svg" xmlns:xlink="http://www.w3.org/1999/xlink" x="0px" y="0px" viewBox="0 0 2002 401"
	 style="enable-background:new 0 0 2002 401;" xml:space="preserve">
<style type="text/css">
	.st0{fill:#BDC4D1;}
</style>
<g id="_x2D_--------------------------------------------------------------_copy_2">
	<path class="st0" d="M2000,209.1l-2.8,7.5l1.1,0.4l2.8-7.5L2000,209.1z M1986.7,238.2l1,0.5l3.7-7.1l-1-0.5L1986.7,238.2z
		 M1974.2,258.7l1,0.6l4.4-6.7l-1-0.6L1974.2,258.7z M1959.7,277.8l0.9,0.7l5-6.2l-0.9-0.7L1959.7,277.8z M1943.5,295.5l0.8,0.8
		l5.6-5.7l-0.8-0.8L1943.5,295.5z M1925.6,311.5l0.8,0.9l6.1-5.1l-0.8-0.9L1925.6,311.5z M1906.3,325.7l0.7,1l6.6-4.5l-0.7-1
		L1906.3,325.7z M1885.6,337.9l0.6,1l7-3.8l-0.6-1L1885.6,337.9z M1863.9,348.1l0.5,1.1l7.3-3.2l-0.5-1.1L1863.9,348.1z
		 M1841.3,356.3l0.4,1.1l7.6-2.5l-0.4-1.1L1841.3,356.3z M1818.2,362.5l0.3,1.1l7.8-1.8l-0.3-1.1L1818.2,362.5z M1794.6,366.7
		l0.2,1.2l7.9-1.2l-0.2-1.2L1794.6,366.7z M1770.8,369.3l0.1,1.2l7.9-0.7l-0.1-1.2L1770.8,369.3z M1747,370.2l0,1.2l8-0.1l0-1.2
		L1747,370.2z M1723,370.6l8,0.4l0.1-1.2l-8-0.4L1723,370.6z M1699.1,367.8l7.9,1.2l0.2-1.2l-7.9-1.2L1699.1,367.8z M1675.5,362.6
		l7.7,2l0.3-1.1l-7.7-2L1675.5,362.6z M1652.6,354.8l7.4,2.8l0.4-1.1l-7.4-2.8L1652.6,354.8z M1630.7,344.5l7.1,3.7l0.5-1l-7.1-3.7
		L1630.7,344.5z M1610.2,331.8l6.6,4.4l0.6-1l-6.6-4.4L1610.2,331.8z M1591.1,317.1l6.2,5.1l0.7-0.9l-6.2-5.1L1591.1,317.1z
		 M1573.4,300.7l5.7,5.6l0.8-0.8l-5.7-5.6L1573.4,300.7z M1557.1,283.2l5.3,5.9l0.9-0.8l-5.3-5.9L1557.1,283.2z M1541.8,264.8l5,6.2
		l0.9-0.7l-5-6.2L1541.8,264.8z M1527.3,245.8l4.8,6.4l0.9-0.7l-4.8-6.4L1527.3,245.8z M1513.4,226.4l4.6,6.5l1-0.7l-4.6-6.5
		L1513.4,226.4z M1499.8,207l4.5,6.5l1-0.7l-4.6-6.5L1499.8,207z M1486.3,187.5l4.6,6.5l1-0.7l-4.6-6.5L1486.3,187.5z M1472.5,168.3
		l4.7,6.5l0.9-0.7l-4.7-6.5L1472.5,168.3z M1458.4,149.5l4.9,6.3l0.9-0.7l-4.9-6.3L1458.4,149.5z M1443.5,131.3l5.1,6.1l0.9-0.8
		l-5.1-6.1L1443.5,131.3z M1427.8,113.8l5.5,5.8l0.9-0.8l-5.5-5.8L1427.8,113.8z M1411,97.5l5.8,5.4l0.8-0.9l-5.8-5.4L1411,97.5z
		 M1393.1,82.5l6.3,4.9l0.7-0.9l-6.3-4.9L1393.1,82.5z M1374,69.2l6.7,4.3l0.6-1l-6.7-4.3L1374,69.2z M1353.7,57.8l7.1,3.7l0.5-1
		l-7.1-3.7L1353.7,57.8z M1332.4,48.5l7.4,3l0.4-1.1l-7.4-3L1332.4,48.5z M1310.2,41.3l7.7,2.2l0.3-1.1l-7.7-2.2L1310.2,41.3z
		 M1287.5,36.2l7.8,1.5l0.2-1.1l-7.8-1.5L1287.5,36.2z M1264.3,33l7.9,0.9l0.1-1.2l-7.9-0.9L1264.3,33z M1241,31.6l8,0.3l0-1.2
		l-8-0.3L1241,31.6z M1217.5,30.4l0,1.2l8-0.1l0-1.2L1217.5,30.4z M1193.9,31.2l0.1,1.2l8-0.3l-0.1-1.2L1193.9,31.2z M1170.3,32.8
		l0.1,1.2l7.9-0.6l-0.1-1.2L1170.3,32.8z M1146.9,35.2l0.1,1.2l7.9-0.9l-0.1-1.2L1146.9,35.2z M1123.6,38.6l0.2,1.2l7.9-1.3
		l-0.2-1.2L1123.6,38.6z M1100.4,43l0.2,1.1l7.8-1.6l-0.2-1.1L1100.4,43z M1077.5,48.5l0.3,1.1l7.7-2l-0.3-1.1L1077.5,48.5z
		 M1054.9,55.1l0.3,1.1l7.6-2.4l-0.3-1.1L1054.9,55.1z M1032.7,62.9l0.4,1.1l7.5-2.8l-0.4-1.1L1032.7,62.9z M1011,71.9l0.5,1.1
		l7.3-3.2l-0.5-1.1L1011,71.9z M989.8,82.1l0.5,1l7.1-3.6l-0.5-1L989.8,82.1z M969,93.3l0.6,1l7-3.9l-0.6-1L969,93.3z M948.8,105.4
		l0.6,1l6.8-4.2l-0.6-1L948.8,105.4z M929,118.3l0.6,1l6.6-4.4l-0.6-1L929,118.3z M909.5,131.6l0.7,1l6.5-4.6l-0.7-1L909.5,131.6z
		 M890.2,145.3l0.7,1l6.5-4.6l-0.7-1L890.2,145.3z M870.8,158.9l0.7,1l6.5-4.6l-0.7-1L870.8,158.9z M851.1,172.3l0.6,1l6.6-4.4
		l-0.6-1L851.1,172.3z M831,185.1l0.6,1l6.8-4.2l-0.6-1L831,185.1z M810.3,196.9l0.6,1l7-3.8l-0.6-1L810.3,196.9z M788.9,207.6
		l0.5,1.1l7.2-3.4l-0.5-1.1L788.9,207.6z M766.9,216.8l0.4,1.1l7.4-2.9l-0.4-1.1L766.9,216.8z M744.2,224.4l0.3,1.1l7.6-2.3
		l-0.3-1.1L744.2,224.4z M721,230.3l0.3,1.1l7.8-1.8l-0.3-1.1L721,230.3z M697.5,234.6l0.2,1.2l7.9-1.3l-0.2-1.2L697.5,234.6z
		 M673.7,237.3l0.1,1.2l7.9-0.8l-0.1-1.2L673.7,237.3z M649.9,238.6l0,1.2l8-0.3l0-1.2L649.9,238.6z M626,239.8l8,0.2l0-1.2l-8-0.2
		L626,239.8z M602.1,238.6l8,0.6l0.1-1.2l-8-0.6L602.1,238.6z M578.3,235.9l7.9,1.1l0.2-1.2l-7.9-1.1L578.3,235.9z M554.7,231.7
		l7.8,1.6l0.2-1.1l-7.8-1.6L554.7,231.7z M531.4,225.8l7.7,2.2l0.3-1.1l-7.7-2.2L531.4,225.8z M508.6,218.2l7.5,2.7l0.4-1.1
		l-7.5-2.7L508.6,218.2z M486.5,209l7.3,3.2l0.5-1.1l-7.3-3.2L486.5,209z M465,198.3l7.1,3.7l0.5-1l-7.1-3.7L465,198.3z
		 M444.2,186.5l6.9,4l0.6-1l-6.9-4L444.2,186.5z M423.9,174l6.7,4.3l0.6-1l-6.7-4.3L423.9,174z M404,161l6.7,4.4l0.6-1l-6.7-4.4
		L404,161z M384.1,148.2l6.7,4.3l0.6-1l-6.7-4.3L384.1,148.2z M364,136l6.9,4l0.6-1l-6.9-4L364,136z M343.3,124.9l7.1,3.6l0.5-1
		l-7.1-3.6L343.3,124.9z M321.9,115.5l7.4,3l0.4-1.1l-7.4-3L321.9,115.5z M299.9,108.2l7.6,2.2l0.3-1.1l-7.6-2.2L299.9,108.2z
		 M277.1,103.3l7.8,1.4l0.2-1.1l-7.8-1.4L277.1,103.3z M254,100.7l7.9,0.6l0.1-1.2l-7.9-0.6L254,100.7z M230.6,100.1l8,0.1l0-1.2
		l-8-0.1L230.6,100.1z M207.1,99.3l0,1.2l8-0.2l0-1.2L207.1,99.3z M183.6,100.8l0.1,1.2l7.9-0.6l-0.1-1.2L183.6,100.8z M160.2,103.6
		l0.2,1.2l7.9-1.1l-0.2-1.2L160.2,103.6z M137.1,107.7l0.2,1.1l7.8-1.6l-0.2-1.1L137.1,107.7z M114.3,113.4l0.3,1.1l7.7-2.1
		l-0.3-1.1L114.3,113.4z M92.1,120.9l0.4,1.1l7.5-2.8l-0.4-1.1L92.1,120.9z M70.7,130.4l0.5,1.1l7.2-3.4l-0.5-1.1L70.7,130.4z
		 M50.3,141.9l0.6,1l6.8-4.2l-0.6-1L50.3,141.9z M31.6,155.7l0.7,0.9l6.2-5l-0.7-0.9L31.6,155.7z M14.9,171.9l0.9,0.8l5.4-5.8
		l-0.9-0.8L14.9,171.9z M1.5,190.7l1,0.6l4.1-6.8l-1-0.6L1.5,190.7z"/>
</g>
</svg>
