<?xml version="1.0" encoding="utf-8"?>
<!-- Generator: Adobe Illustrator 24.1.1, SVG Export Plug-In . SVG Version: 6.00 Build 0)  -->
<svg version="1.1" id="Layer_1" xmlns="http://www.w3.org/2000/svg" xmlns:xlink="http://www.w3.org/1999/xlink" x="0px" y="0px"
	 viewBox="0 0 77.7 36.9" style="enable-background:new 0 0 77.7 36.9;" xml:space="preserve">
<style type="text/css">
	.st0{enable-background:new    ;}
	.st1{fill:#0D1834;}
</style>
<g id="تی_پی_1_" class="st0">
	<g id="تی_پی">
		<g>
			<path class="st1" d="M31.9,26h-5.2v3.4h5.2l0,0h-0.1v3.4h3.8v-3.4l0,0V26H31.9L31.9,26z M32.4,17.1c0,1.5-0.8,2.2-2.4,2.2H14.1
				l-0.2,3.8h5.2c0.6,0,1.1,0.2,1.3,0.5c0.3,0.3,0.4,0.7,0.4,1.2c0,0.4-0.1,0.8-0.3,1.2c-0.2,0.4-0.5,0.7-0.9,0.9
				c-0.4,0.3-1,0.4-1.7,0.6c-0.7,0.1-1.6,0.2-2.7,0.2h-2.8c-1,0-1.8-0.1-2.5-0.4s-1.2-0.6-1.7-1.1c-0.4-0.5-0.7-1-0.9-1.6
				C7.1,24,7,23.2,7,22.4v-6H3.4v6.1c0,2.7,0.7,4.9,2.2,6.5s3.6,2.4,6.3,2.4h3.8c1.6,0,2.9-0.2,4-0.6s2-0.9,2.6-1.5
				c0.7-0.6,1.1-1.3,1.4-2s0.4-1.4,0.4-2c0-0.5-0.1-1-0.2-1.3c-0.1-0.4-0.3-0.7-0.6-0.9h6.8c1.8,0,3.3-0.5,4.3-1.5s1.5-2.4,1.5-4.3
				V13h-3.5L32.4,17.1z M70.1,17.1c0,1.5-0.8,2.2-2.4,2.2H51.8l-0.2,3.8h5.2c0.6,0,1.1,0.2,1.3,0.5c0.3,0.3,0.4,0.7,0.4,1.2
				c0,0.4-0.1,0.8-0.3,1.2c-0.2,0.4-0.5,0.7-0.9,0.9c-0.4,0.3-1,0.4-1.7,0.6c-0.7,0.1-1.6,0.2-2.7,0.2h-2.8c-1,0-1.8-0.1-2.5-0.4
				C47,27,46.4,26.7,46,26.2s-0.7-1-0.9-1.6s-0.3-1.4-0.3-2.2v-6h-3.7v6.1c0,2.7,0.7,4.9,2.2,6.5s3.6,2.4,6.3,2.4h3.8
				c1.6,0,2.9-0.2,4-0.6s2-0.9,2.6-1.5c0.7-0.6,1.1-1.3,1.4-2s0.4-1.4,0.4-2c0-0.5-0.1-1-0.2-1.3c-0.1-0.4-0.3-0.7-0.6-0.9h7
				c1.8,0,3.3-0.5,4.3-1.5s1.5-2.4,1.5-4.3V13h-3.7C70.1,13,70.1,17.1,70.1,17.1z M65,6.8v3.4h8.9V6.8H65z"/>
		</g>
	</g>
</g>
</svg>
