<?xml version="1.0" encoding="utf-8"?>
<!-- Generator: Adobe Illustrator 24.1.1, SVG Export Plug-In . SVG Version: 6.00 Build 0)  -->
<svg version="1.1" xmlns="http://www.w3.org/2000/svg" xmlns:xlink="http://www.w3.org/1999/xlink" x="0px" y="0px"
	 viewBox="0 0 129.7 36.9" style="enable-background:new 0 0 129.7 36.9;" xml:space="preserve">
<style type="text/css">
	.st0{enable-background:new    ;}
	.st1{fill:#C59425;}
	.st2{fill:#0D1834;}
</style>
<g id="Shape_2_1_" class="st0">
	<g id="Shape_2">
		<g>
			<path class="st1" d="M124.9,4.1H96c-0.5,0-0.9,0.2-1.2,0.6L93.2,7c-0.3,0.5-0.3,1.2,0,1.7l1.6,2.5c0.3,0.4,0.7,0.6,1.2,0.6h25.6
				c0.5,0,0.9-0.2,1.2-0.6l3.3-4.8C126.8,5.4,126.1,4.1,124.9,4.1z M117.4,14.8c-0.3-0.4-0.7-0.6-1.2-0.6H107
				c-0.8,0-1.5,0.7-1.5,1.5v4.8c0,0.8,0.7,1.6,1.5,1.6l9.2-0.1c0.5,0,0.9-0.2,1.2-0.6l1.6-2.3c0.3-0.5,0.3-1.2,0-1.7L117.4,14.8z
				 M112.1,24.4h-5.1c-0.8,0-1.5,0.7-1.5,1.5v7.2c0,1.4,1.8,2,2.7,0.9l5.1-7.2C114,25.8,113.3,24.4,112.1,24.4z"/>
		</g>
	</g>
</g>
<g id="تی_پی_1_" class="st0">
	<g id="تی_پی">
		<g>
			<path class="st2" d="M31.9,26l-5.2,0v3.4l5.2,0v0h-0.1v3.4h3.8v-3.4h0V26L31.9,26L31.9,26z M32.4,17.1c0,1.5-0.8,2.2-2.4,2.2
				H14.1l-0.2,3.8h5.2c0.6,0,1.1,0.2,1.3,0.5c0.3,0.3,0.4,0.7,0.4,1.2c0,0.4-0.1,0.8-0.3,1.2c-0.2,0.4-0.5,0.7-0.9,0.9
				c-0.4,0.3-1,0.4-1.7,0.6c-0.7,0.1-1.6,0.2-2.7,0.2h-2.8c-1,0-1.8-0.1-2.5-0.4c-0.7-0.3-1.2-0.6-1.7-1.1c-0.4-0.5-0.7-1-0.9-1.6
				c-0.2-0.6-0.3-1.4-0.3-2.2v-6H3.4v6.1c0,2.7,0.7,4.9,2.2,6.5c1.5,1.6,3.6,2.4,6.3,2.4h3.8c1.6,0,2.9-0.2,4-0.6
				c1.1-0.4,2-0.9,2.6-1.5c0.7-0.6,1.1-1.3,1.4-2s0.4-1.4,0.4-2c0-0.5-0.1-1-0.2-1.3c-0.1-0.4-0.3-0.7-0.6-0.9h6.8
				c1.8,0,3.3-0.5,4.3-1.5c1-1,1.5-2.4,1.5-4.3V13h-3.7V17.1z M70.1,17.1c0,1.5-0.8,2.2-2.4,2.2H51.8l-0.2,3.8h5.2
				c0.6,0,1.1,0.2,1.3,0.5c0.3,0.3,0.4,0.7,0.4,1.2c0,0.4-0.1,0.8-0.3,1.2c-0.2,0.4-0.5,0.7-0.9,0.9c-0.4,0.3-1,0.4-1.7,0.6
				c-0.7,0.1-1.6,0.2-2.7,0.2h-2.8c-1,0-1.8-0.1-2.5-0.4C47,27,46.4,26.7,46,26.2c-0.4-0.5-0.7-1-0.9-1.6c-0.2-0.6-0.3-1.4-0.3-2.2
				v-6h-3.7v6.1c0,2.7,0.7,4.9,2.2,6.5c1.5,1.6,3.6,2.4,6.3,2.4h3.8c1.6,0,2.9-0.2,4-0.6c1.1-0.4,2-0.9,2.6-1.5
				c0.7-0.6,1.1-1.3,1.4-2s0.4-1.4,0.4-2c0-0.5-0.1-1-0.2-1.3c-0.1-0.4-0.3-0.7-0.6-0.9H68c1.8,0,3.3-0.5,4.3-1.5
				c1-1,1.5-2.4,1.5-4.3V13h-3.7V17.1z M65,6.8v3.4h8.9V6.8H65z"/>
		</g>
	</g>
</g>
</svg>
