<svg xmlns="http://www.w3.org/2000/svg" width="267" height="218" viewBox="0 0 267 218"><g><g><path fill="#c59425" d="M230.195 58.496H24.319c-3.69 0-7.145-1.815-9.245-4.847L2.856 35.98a11.244 11.244 0 0 1 0-12.79L15.074 5.531A11.236 11.236 0 0 1 24.319.684H255.03c9.105 0 14.433 10.254 9.197 17.707l-24.836 35.327a11.244 11.244 0 0 1-9.196 4.778zm-124.106 58.309V81.47c0-6.208 5.033-11.242 11.242-11.242h72.133c3.69 0 7.146 1.81 9.245 4.847l12.218 17.664a11.252 11.252 0 0 1 0 12.796l-12.218 17.659a11.236 11.236 0 0 1-9.245 4.847h-72.133c-6.209 0-11.242-5.034-11.242-11.237zm11.242 22.965h39.07c9.13 0 14.451 10.307 9.163 17.754l-39.07 54.994c-6.342 8.92-20.405 4.436-20.405-6.518v-54.988c0-6.209 5.033-11.242 11.242-11.242z"/></g></g></svg>